Coordinates
version=1
nRows=38
nColumns=12
inDegrees=yes

Units are S.I. units (second, meters, Newtons, ...)
Angles are in degrees

endheader
time	SC_y	SC_z	SC_x	AC_y	AC_z	AC_x	GH_y	GH_z	GH_yy	EL_x	PS_y
       0.0              -17.16         -3.759          11.45          65.15        -0.5634         -7.694          55.52          85.08          157.9          104.2          123.4
   0.01536              -17.16         -3.755          11.46          65.14        -0.5649         -7.692          55.49          85.07          157.9          104.2          123.4
   0.03072              -17.17         -3.751          11.47          65.14        -0.5666          -7.69          55.46          85.06          157.9          104.2          123.4
   0.04608              -17.17         -3.746          11.48          65.14        -0.5683         -7.688          55.42          85.05          157.8          104.2          123.4
   0.06144              -17.17         -3.742          11.49          65.14        -0.5702         -7.686          55.38          85.03          157.8          104.2          123.4
    0.0768              -17.17         -3.737          11.51          65.13        -0.5721         -7.684          55.34          85.02          157.8          104.2          123.4
   0.09216              -17.17         -3.731          11.52          65.13        -0.5742         -7.681           55.3          85.01          157.7          104.2          123.4
    0.1075              -17.17         -3.725          11.53          65.12        -0.5765         -7.678          55.25          84.99          157.7          104.1          123.4
    0.1229              -17.17         -3.719          11.54          65.12        -0.5789         -7.676           55.2          84.97          157.6          104.1          123.4
    0.1382              -17.18         -3.712          11.56          65.12        -0.5815         -7.672          55.15          84.96          157.6          104.1          123.4
    0.1536              -17.18         -3.705          11.58          65.11        -0.5843         -7.669          55.09          84.94          157.6          104.1          123.4
     0.169              -17.18         -3.698          11.59          65.11        -0.5873         -7.666          55.03          84.92          157.5          104.1          123.4
    0.1843              -17.18         -3.689          11.61           65.1        -0.5906         -7.662          54.97           84.9          157.4          104.1          123.4
    0.1997              -17.18          -3.68          11.63          65.09         -0.594         -7.658           54.9          84.87          157.4          104.1          123.4
     0.215              -17.19         -3.671          11.65          65.09        -0.5978         -7.653          54.82          84.85          157.3          104.1          123.4
    0.2304              -17.19          -3.66          11.68          65.08        -0.6019         -7.648          54.73          84.82          157.2          104.1          123.4
    0.2458              -17.19         -3.649           11.7          65.07        -0.6064         -7.643          54.64          84.79          157.2          104.1          123.4
    0.2611              -17.19         -3.636          11.73          65.07        -0.6112         -7.637          54.54          84.76          157.1          104.0          123.4
    0.2765               -17.2         -3.623          11.76          65.06        -0.6165         -7.631          54.43          84.72          157.0          104.0          123.4
    0.2918               -17.2         -3.608           11.8          65.05        -0.6224         -7.624          54.32          84.68          156.9          104.0          123.5
    0.3072              -17.21         -3.591          11.83          65.04        -0.6287         -7.616          54.19          84.64          156.8          104.0          123.5
    0.3226              -17.21         -3.573          11.87          65.02        -0.6357         -7.608          54.04           84.6          156.6          104.0          123.5
    0.3379              -17.22         -3.553          11.92          65.01        -0.6435         -7.599          53.88          84.54          156.5          103.9          123.5
    0.3533              -17.22         -3.531          11.97           65.0        -0.6521         -7.588          53.71          84.49          156.3          103.9          123.5
    0.3686              -17.23         -3.507          12.03          64.98        -0.6616         -7.577          53.51          84.42          156.2          103.9          123.5
     0.384              -17.23          -3.48          12.09          64.96        -0.6723         -7.564          53.29          84.35          156.0          103.9          123.5
    0.3994              -17.24         -3.449          12.16          64.94        -0.6842          -7.55          53.05          84.27          155.8          103.8          123.5
    0.4147              -17.25         -3.414          12.23          64.92        -0.6976         -7.534          52.77          84.18          155.5          103.8          123.6
    0.4301              -17.26         -3.376          12.32          64.89        -0.7128         -7.516          52.46          84.08          155.3          103.7          123.6
    0.4454              -17.27         -3.331          12.42          64.86          -0.73         -7.496          52.11          83.97          155.0          103.7          123.6
    0.4608              -17.29         -3.281          12.54          64.83        -0.7497         -7.472          51.71          83.84          154.6          103.6          123.6
    0.4762               -17.3         -3.223          12.67          64.79        -0.7722         -7.446          51.25          83.69          154.2          103.5          123.7
    0.4915              -17.32         -3.156          12.82          64.75        -0.7983         -7.415          50.71          83.51          153.7          103.5          123.7
    0.5069              -17.34         -3.078           13.0          64.69        -0.8285         -7.379          50.09          83.31          153.2          103.4          123.8
    0.5222              -17.36         -2.988           13.2          64.63        -0.8639         -7.336          49.37          83.07          152.6          103.3          123.8
    0.5376              -17.39          -2.88          13.44          64.56        -0.9057         -7.287          48.51          82.79          151.8          103.1          123.9
     0.553              -17.42         -2.753          13.73          64.48        -0.9553         -7.228           47.5          82.46          150.9          103.0          124.0
    0.5683              -17.46         -2.601          14.08          64.38         -1.015         -7.157          46.28          82.07          149.9          102.8          124.0
